<mxfile host="app.diagrams.net" modified="2021-06-02T16:55:52.053Z" agent="5.0 (Macintosh; Intel Mac OS X 10_15_7) AppleWebKit/537.36 (KHTML, like Gecko) Chrome/91.0.4472.77 Safari/537.36" etag="nOIhCMq_Y4_gnisKX-Yw" version="14.7.3" type="github">
  <diagram name="Page-1" id="03018318-947c-dd8e-b7a3-06fadd420f32">
    <mxGraphModel dx="946" dy="557" grid="1" gridSize="10" guides="1" tooltips="1" connect="1" arrows="1" fold="1" page="1" pageScale="1" pageWidth="1100" pageHeight="850" background="none" math="0" shadow="0">
      <root>
        <mxCell id="0" />
        <mxCell id="1" parent="0" />
        <mxCell id="677b7b8949515195-1" value="" style="whiteSpace=wrap;html=1;rounded=0;shadow=0;labelBackgroundColor=none;strokeColor=#000000;strokeWidth=1;fillColor=none;fontFamily=Verdana;fontSize=12;fontColor=#000000;align=center;comic=1;" parent="1" vertex="1">
          <mxGeometry x="20" y="20" width="1060" height="810" as="geometry" />
        </mxCell>
        <mxCell id="677b7b8949515195-2" value="LOGO" style="whiteSpace=wrap;html=1;rounded=0;shadow=0;labelBackgroundColor=none;strokeWidth=1;fontFamily=Verdana;fontSize=28;align=center;comic=1;" parent="1" vertex="1">
          <mxGeometry x="40" y="60" width="190" height="50" as="geometry" />
        </mxCell>
        <mxCell id="677b7b8949515195-9" value="" style="line;strokeWidth=1;html=1;rounded=0;shadow=0;labelBackgroundColor=none;fillColor=none;fontFamily=Verdana;fontSize=14;fontColor=#000000;align=center;comic=1;" parent="1" vertex="1">
          <mxGeometry x="20" y="140" width="1060" height="10" as="geometry" />
        </mxCell>
        <mxCell id="677b7b8949515195-10" value="" style="whiteSpace=wrap;html=1;rounded=0;shadow=0;labelBackgroundColor=none;strokeWidth=1;fillColor=none;fontFamily=Verdana;fontSize=12;align=center;comic=1;" parent="1" vertex="1">
          <mxGeometry x="30" y="160" width="1040" height="510" as="geometry" />
        </mxCell>
        <mxCell id="677b7b8949515195-44" value="Feature 1" style="text;html=1;points=[];align=left;verticalAlign=top;spacingTop=-4;fontSize=14;fontFamily=Verdana" parent="1" vertex="1">
          <mxGeometry x="860" y="250" width="170" height="20" as="geometry" />
        </mxCell>
        <mxCell id="677b7b8949515195-45" value="Feature 2" style="text;html=1;points=[];align=left;verticalAlign=top;spacingTop=-4;fontSize=14;fontFamily=Verdana" parent="1" vertex="1">
          <mxGeometry x="860" y="285" width="170" height="20" as="geometry" />
        </mxCell>
        <mxCell id="677b7b8949515195-46" value="Feature 3" style="text;html=1;points=[];align=left;verticalAlign=top;spacingTop=-4;fontSize=14;fontFamily=Verdana" parent="1" vertex="1">
          <mxGeometry x="860" y="320" width="170" height="20" as="geometry" />
        </mxCell>
        <mxCell id="677b7b8949515195-47" value="Feature 4" style="text;html=1;points=[];align=left;verticalAlign=top;spacingTop=-4;fontSize=14;fontFamily=Verdana" parent="1" vertex="1">
          <mxGeometry x="860" y="355" width="170" height="20" as="geometry" />
        </mxCell>
        <mxCell id="677b7b8949515195-48" value="Feature 5" style="text;html=1;points=[];align=left;verticalAlign=top;spacingTop=-4;fontSize=14;fontFamily=Verdana" parent="1" vertex="1">
          <mxGeometry x="860" y="390" width="170" height="20" as="geometry" />
        </mxCell>
        <mxCell id="677b7b8949515195-49" value="Feature 6" style="text;html=1;points=[];align=left;verticalAlign=top;spacingTop=-4;fontSize=14;fontFamily=Verdana" parent="1" vertex="1">
          <mxGeometry x="860" y="425" width="170" height="20" as="geometry" />
        </mxCell>
        <mxCell id="cmsqQnokqB_8ML_6pSYd-1" value="x&lt;span style=&quot;color: rgba(0 , 0 , 0 , 0) ; font-family: monospace ; font-size: 0px&quot;&gt;%3CmxGraphModel%3E%3Croot%3E%3CmxCell%20id%3D%220%22%2F%3E%3CmxCell%20id%3D%221%22%20parent%3D%220%22%2F%3E%3CmxCell%20id%3D%222%22%20value%3D%22Email%20Address%22%20style%3D%22text%3Bhtml%3D1%3BstrokeColor%3Dnone%3BfillColor%3Dnone%3Balign%3Dcenter%3BverticalAlign%3Dmiddle%3BwhiteSpace%3Dwrap%3Brounded%3D0%3B%22%20vertex%3D%221%22%20parent%3D%221%22%3E%3CmxGeometry%20x%3D%22140%22%20y%3D%22415.5%22%20width%3D%2295%22%20height%3D%2220%22%20as%3D%22geometry%22%2F%3E%3C%2FmxCell%3E%3C%2Froot%3E%3C%2FmxGraphModel%3E&lt;/span&gt;" style="strokeWidth=1;shadow=0;dashed=0;align=center;html=1;shape=mxgraph.mockup.containers.marginRect2;rectMarginTop=32;strokeColor=#666666;gradientColor=none;" vertex="1" parent="1">
          <mxGeometry x="70" y="193" width="920" height="465" as="geometry" />
        </mxCell>
        <mxCell id="cmsqQnokqB_8ML_6pSYd-2" value="Select the Provider" style="strokeColor=inherit;fillColor=inherit;gradientColor=inherit;strokeWidth=1;shadow=0;dashed=0;align=center;html=1;shape=mxgraph.mockup.containers.rrect;rSize=0;fontSize=17;fontColor=#666666;gradientColor=none;" vertex="1" parent="cmsqQnokqB_8ML_6pSYd-1">
          <mxGeometry width="170" height="25" relative="1" as="geometry">
            <mxPoint as="offset" />
          </mxGeometry>
        </mxCell>
        <mxCell id="cmsqQnokqB_8ML_6pSYd-3" value="&lt;font color=&quot;#4d4d4d&quot;&gt;Select the appointment time&lt;/font&gt;" style="strokeWidth=1;shadow=0;dashed=0;align=center;html=1;shape=mxgraph.mockup.containers.rrect;rSize=0;fontSize=17;fontColor=#ffffff;strokeColor=#008cff;fillColor=none;" vertex="1" parent="cmsqQnokqB_8ML_6pSYd-1">
          <mxGeometry width="250" height="25" relative="1" as="geometry">
            <mxPoint x="170" as="offset" />
          </mxGeometry>
        </mxCell>
        <mxCell id="cmsqQnokqB_8ML_6pSYd-4" value="&lt;b&gt;Sign In&lt;/b&gt;" style="strokeColor=inherit;fillColor=inherit;gradientColor=inherit;strokeWidth=1;shadow=0;dashed=0;align=center;html=1;shape=mxgraph.mockup.containers.rrect;rSize=0;fontSize=17;fontColor=#666666;gradientColor=none;" vertex="1" parent="cmsqQnokqB_8ML_6pSYd-1">
          <mxGeometry width="170" height="25" relative="1" as="geometry">
            <mxPoint x="415" as="offset" />
          </mxGeometry>
        </mxCell>
        <mxCell id="cmsqQnokqB_8ML_6pSYd-5" value="" style="strokeWidth=1;shadow=0;dashed=0;align=center;html=1;shape=mxgraph.mockup.containers.topButton;rSize=5;strokeColor=#008cff;fillColor=#008cff;gradientColor=none;resizeWidth=1;movable=0;deletable=1;" vertex="1" parent="cmsqQnokqB_8ML_6pSYd-1">
          <mxGeometry width="920" height="7" relative="1" as="geometry">
            <mxPoint y="25" as="offset" />
          </mxGeometry>
        </mxCell>
        <mxCell id="cmsqQnokqB_8ML_6pSYd-6" value="Previous" style="strokeWidth=1;shadow=0;dashed=0;align=center;html=1;shape=mxgraph.mockup.buttons.button;strokeColor=#666666;fontColor=#ffffff;mainText=;buttonStyle=round;fontSize=17;fontStyle=1;fillColor=#008cff;whiteSpace=wrap;" vertex="1" parent="cmsqQnokqB_8ML_6pSYd-1">
          <mxGeometry x="62.16216216216216" y="367" width="186.48648648648648" height="50" as="geometry" />
        </mxCell>
        <mxCell id="cmsqQnokqB_8ML_6pSYd-7" value="Next" style="strokeWidth=1;shadow=0;dashed=0;align=center;html=1;shape=mxgraph.mockup.buttons.button;strokeColor=#666666;fontColor=#ffffff;mainText=;buttonStyle=round;fontSize=17;fontStyle=1;fillColor=#008cff;whiteSpace=wrap;" vertex="1" parent="cmsqQnokqB_8ML_6pSYd-1">
          <mxGeometry x="285.94594594594594" y="367" width="186.48648648648648" height="50" as="geometry" />
        </mxCell>
        <UserObject label="Start From First- Change Location&amp;nbsp;" link="https://www.draw.io" id="cmsqQnokqB_8ML_6pSYd-8">
          <mxCell style="text;html=1;strokeColor=none;fillColor=none;whiteSpace=wrap;align=center;verticalAlign=middle;fontColor=#0000EE;fontStyle=4;" vertex="1" parent="cmsqQnokqB_8ML_6pSYd-1">
            <mxGeometry y="400" width="260" height="65" as="geometry" />
          </mxCell>
        </UserObject>
        <mxCell id="cmsqQnokqB_8ML_6pSYd-9" value="First Name&amp;nbsp;" style="text;html=1;strokeColor=none;fillColor=none;align=center;verticalAlign=middle;whiteSpace=wrap;rounded=0;" vertex="1" parent="cmsqQnokqB_8ML_6pSYd-1">
          <mxGeometry x="65" y="67" width="95" height="20" as="geometry" />
        </mxCell>
        <mxCell id="cmsqQnokqB_8ML_6pSYd-25" value="" style="rounded=1;whiteSpace=wrap;html=1;" vertex="1" parent="cmsqQnokqB_8ML_6pSYd-1">
          <mxGeometry x="210" y="117" width="124.05" height="30" as="geometry" />
        </mxCell>
        <mxCell id="cmsqQnokqB_8ML_6pSYd-11" value="Date of Birth" style="text;html=1;strokeColor=none;fillColor=none;align=center;verticalAlign=middle;whiteSpace=wrap;rounded=0;" vertex="1" parent="cmsqQnokqB_8ML_6pSYd-1">
          <mxGeometry x="70" y="177" width="95" height="20" as="geometry" />
        </mxCell>
        <mxCell id="cmsqQnokqB_8ML_6pSYd-90" value="Mobile Phone" style="text;html=1;strokeColor=none;fillColor=none;align=center;verticalAlign=middle;whiteSpace=wrap;rounded=0;" vertex="1" parent="cmsqQnokqB_8ML_6pSYd-1">
          <mxGeometry x="80" y="267" width="95" height="20" as="geometry" />
        </mxCell>
        <mxCell id="cmsqQnokqB_8ML_6pSYd-91" value="&amp;nbsp;I agree the terms and conditions&amp;nbsp;" style="strokeWidth=1;shadow=0;dashed=0;align=center;html=1;shape=mxgraph.mockup.forms.rrect;rSize=0;fillColor=#eeeeee;strokeColor=#999999;gradientColor=#cccccc;align=left;spacingLeft=4;fontSize=17;fontColor=#666666;labelPosition=right;" vertex="1" parent="cmsqQnokqB_8ML_6pSYd-1">
          <mxGeometry x="130" y="327" width="15" height="15" as="geometry" />
        </mxCell>
        <mxCell id="cmsqQnokqB_8ML_6pSYd-10" value="Last Name&amp;nbsp;" style="text;html=1;strokeColor=none;fillColor=none;align=center;verticalAlign=middle;whiteSpace=wrap;rounded=0;" vertex="1" parent="1">
          <mxGeometry x="135" y="320" width="95" height="20" as="geometry" />
        </mxCell>
        <mxCell id="cmsqQnokqB_8ML_6pSYd-26" style="edgeStyle=orthogonalEdgeStyle;rounded=0;orthogonalLoop=1;jettySize=auto;html=1;exitX=0.5;exitY=0;exitDx=0;exitDy=0;entryX=0.5;entryY=1;entryDx=0;entryDy=0;" edge="1" parent="1" source="cmsqQnokqB_8ML_6pSYd-10" target="cmsqQnokqB_8ML_6pSYd-10">
          <mxGeometry relative="1" as="geometry" />
        </mxCell>
        <mxCell id="cmsqQnokqB_8ML_6pSYd-80" value="" style="rounded=1;whiteSpace=wrap;html=1;" vertex="1" parent="1">
          <mxGeometry x="280" y="363" width="124.05" height="30" as="geometry" />
        </mxCell>
        <mxCell id="cmsqQnokqB_8ML_6pSYd-85" value="" style="rounded=1;whiteSpace=wrap;html=1;" vertex="1" parent="1">
          <mxGeometry x="280" y="450" width="140" height="30" as="geometry" />
        </mxCell>
        <mxCell id="cmsqQnokqB_8ML_6pSYd-86" value="" style="rounded=1;whiteSpace=wrap;html=1;" vertex="1" parent="1">
          <mxGeometry x="280" y="410.5" width="250" height="30" as="geometry" />
        </mxCell>
        <mxCell id="cmsqQnokqB_8ML_6pSYd-87" value="" style="rounded=1;whiteSpace=wrap;html=1;" vertex="1" parent="1">
          <mxGeometry x="280" y="260" width="124.05" height="30" as="geometry" />
        </mxCell>
        <mxCell id="cmsqQnokqB_8ML_6pSYd-89" value="Email Address" style="text;html=1;strokeColor=none;fillColor=none;align=center;verticalAlign=middle;whiteSpace=wrap;rounded=0;" vertex="1" parent="1">
          <mxGeometry x="140" y="415.5" width="95" height="20" as="geometry" />
        </mxCell>
        <mxCell id="cmsqQnokqB_8ML_6pSYd-94" value="Confirmation Page" style="strokeColor=inherit;fillColor=inherit;gradientColor=inherit;strokeWidth=1;shadow=0;dashed=0;align=center;html=1;shape=mxgraph.mockup.containers.rrect;rSize=0;fontSize=17;fontColor=#666666;gradientColor=none;" vertex="1" parent="1">
          <mxGeometry x="650" y="193" width="230" height="25" as="geometry" />
        </mxCell>
      </root>
    </mxGraphModel>
  </diagram>
</mxfile>
